<svg xmlns="http://www.w3.org/2000/svg" style="display: none;">
  <!-- Uzbekistan Flag -->
  <symbol id="flag-uz" viewBox="0 0 33 25">
    <defs>
      <clipPath id="clip-uz">
        <rect width="33" height="25" rx="8" fill="white"/>
      </clipPath>
    </defs>
    <g clip-path="url(#clip-uz)">
      <path d="M0 16.6667H33V25H0V16.6667Z" fill="#1EB53A"/>
      <path d="M0 0H33V8.33333H0V0Z" fill="#0099B5"/>
      <path d="M0 8H33V17H0V8Z" fill="#CE1126"/>
      <path d="M0 8.5H33V16.5H0V8.5Z" fill="white"/>
      <path d="M6.92999 7C8.57028 7 9.89999 5.65685 9.89999 4C9.89999 2.34315 8.57028 1 6.92999 1C5.28971 1 3.95999 2.34315 3.95999 4C3.95999 5.65685 5.28971 7 6.92999 7Z" fill="white"/>
      <path d="M7.92001 7C9.5603 7 10.89 5.65685 10.89 4C10.89 2.34315 9.5603 1 7.92001 1C6.27973 1 4.95001 2.34315 4.95001 4C4.95001 5.65685 6.27973 7 7.92001 7Z" fill="#0099B5"/>
      <path d="M13.463 5.80104L13.2749 6.37104L13.562 6.47104" fill="white"/>
      <path d="M13.463 5.80104L13.6511 6.37104L13.364 6.47104" fill="white"/>
      <path d="M14.0281 6.21501L13.4332 6.2119L13.4271 6.51779" fill="white"/>
      <path d="M14.0283 6.2153L13.5488 6.57233L13.3665 6.32853" fill="white"/>
      <path d="M12.8976 6.2153L13.3771 6.57233L13.5595 6.32853" fill="white"/>
      <path d="M12.8978 6.215L13.4927 6.21189L13.4989 6.51778" fill="white"/>
      <path d="M13.8118 6.88623L13.633 6.31349L13.3422 6.40353" fill="white"/>
      <path d="M13.8119 6.88618L13.3282 6.53735L13.5028 6.28563" fill="white"/>
      <path d="M13.1135 6.88668L13.5975 6.53671L13.4239 6.28566" fill="white"/>
      <path d="M13.1136 6.88657L13.2937 6.31368L13.5838 6.40284" fill="white"/>
      <path d="M13.463 3.40104L13.2749 3.97104L13.562 4.07104" fill="white"/>
      <path d="M13.463 3.40104L13.6511 3.97104L13.364 4.07104" fill="white"/>
      <path d="M14.0281 3.815L13.4332 3.81189L13.4271 4.11778" fill="white"/>
      <path d="M14.0283 3.8153L13.5488 4.17233L13.3665 3.92853" fill="white"/>
      <path d="M12.8976 3.81531L13.3771 4.17233L13.5595 3.92854" fill="white"/>
      <path d="M12.8978 3.815L13.4927 3.81189L13.4989 4.11778" fill="white"/>
      <path d="M13.8118 4.48624L13.633 3.9135L13.3422 4.00354" fill="white"/>
      <path d="M13.8119 4.48618L13.3282 4.13735L13.5028 3.88563" fill="white"/>
      <path d="M13.1135 4.48668L13.5975 4.13671L13.4239 3.88566" fill="white"/>
      <path d="M13.1136 4.48657L13.2937 3.91369L13.5838 4.00285" fill="white"/>
      <path d="M13.463 1.00104L13.2749 1.57104L13.562 1.67104" fill="white"/>
      <path d="M13.463 1.00104L13.6511 1.57104L13.364 1.67104" fill="white"/>
      <path d="M14.0281 1.41501L13.4332 1.41189L13.4271 1.71778" fill="white"/>
      <path d="M14.0283 1.4153L13.5488 1.77233L13.3665 1.52853" fill="white"/>
      <path d="M12.8976 1.4153L13.3771 1.77233L13.5595 1.52853" fill="white"/>
      <path d="M12.8978 1.415L13.4927 1.41189L13.4989 1.71778" fill="white"/>
      <path d="M13.8118 2.08623L13.633 1.51349L13.3422 1.60354" fill="white"/>
      <path d="M13.8119 2.08618L13.3282 1.73735L13.5028 1.48563" fill="white"/>
      <path d="M13.1135 2.08669L13.5975 1.73671L13.4239 1.48566" fill="white"/>
      <path d="M13.1136 2.08657L13.2937 1.51368L13.5838 1.60284" fill="white"/>
      <path d="M15.839 5.80104L15.6509 6.37104L15.938 6.47104" fill="white"/>
      <path d="M15.839 5.80104L16.0271 6.37104L15.74 6.47104" fill="white"/>
      <path d="M16.4041 6.215L15.8092 6.21189L15.803 6.51778" fill="white"/>
      <path d="M16.4043 6.2153L15.9248 6.57233L15.7425 6.32853" fill="white"/>
      <path d="M15.2736 6.2153L15.7531 6.57233L15.9355 6.32853" fill="white"/>
      <path d="M15.2738 6.215L15.8687 6.21189L15.8749 6.51778" fill="white"/>
      <path d="M16.1878 6.88623L16.009 6.31349L15.7182 6.40353" fill="white"/>
      <path d="M16.1879 6.88618L15.7042 6.53735L15.8788 6.28563" fill="white"/>
      <path d="M15.4896 6.88668L15.9735 6.53671L15.7999 6.28566" fill="white"/>
      <path d="M15.4896 6.88657L15.6697 6.31368L15.9598 6.40284" fill="white"/>
      <path d="M15.839 3.40104L15.6509 3.97104L15.938 4.07104" fill="white"/>
      <path d="M15.839 3.40104L16.0271 3.97104L15.74 4.07104" fill="white"/>
      <path d="M16.4041 3.815L15.8092 3.81189L15.803 4.11778" fill="white"/>
      <path d="M16.4043 3.8153L15.9248 4.17233L15.7425 3.92853" fill="white"/>
      <path d="M15.2736 3.8153L15.7531 4.17233L15.9355 3.92853" fill="white"/>
      <path d="M15.2738 3.815L15.8687 3.81189L15.8749 4.11778" fill="white"/>
      <path d="M16.1878 4.48624L16.009 3.9135L15.7182 4.00354" fill="white"/>
      <path d="M16.1879 4.48618L15.7042 4.13735L15.8788 3.88563" fill="white"/>
      <path d="M15.4896 4.48668L15.9735 4.13671L15.7999 3.88566" fill="white"/>
      <path d="M15.4896 4.48657L15.6697 3.91369L15.9598 4.00285" fill="white"/>
      <path d="M15.8389 1.00104L15.6508 1.57104L15.9379 1.67104" fill="white"/>
      <path d="M15.8389 1.00104L16.027 1.57104L15.7399 1.67104" fill="white"/>
      <path d="M16.4041 1.415L15.8092 1.41189L15.803 1.71778" fill="white"/>
      <path d="M16.4043 1.4153L15.9248 1.77233L15.7424 1.52853" fill="white"/>
      <path d="M15.2736 1.4153L15.7531 1.77233L15.9355 1.52853" fill="white"/>
      <path d="M15.2738 1.415L15.8687 1.41189L15.8749 1.71778" fill="white"/>
      <path d="M16.1878 2.08623L16.009 1.51349L15.7182 1.60354" fill="white"/>
      <path d="M16.1879 2.08618L15.7042 1.73735L15.8788 1.48563" fill="white"/>
      <path d="M15.4896 2.08669L15.9735 1.73671L15.7999 1.48566" fill="white"/>
      <path d="M15.4896 2.08657L15.6697 1.51368L15.9598 1.60284" fill="white"/>
      <path d="M18.215 5.80104L18.0269 6.37104L18.314 6.47104" fill="white"/>
      <path d="M18.215 5.80104L18.4031 6.37104L18.116 6.47104" fill="white"/>
      <path d="M18.7801 6.21501L18.1852 6.2119L18.179 6.51779" fill="white"/>
      <path d="M18.7803 6.2153L18.3008 6.57233L18.1185 6.32853" fill="white"/>
      <path d="M17.6496 6.2153L18.1291 6.57233L18.3115 6.32853" fill="white"/>
      <path d="M17.6498 6.215L18.2447 6.21189L18.2509 6.51778" fill="white"/>
      <path d="M18.5638 6.88623L18.385 6.31349L18.0942 6.40353" fill="white"/>
      <path d="M18.564 6.88618L18.0802 6.53735L18.2548 6.28563" fill="white"/>
      <path d="M17.8656 6.88668L18.3495 6.53671L18.1759 6.28566" fill="white"/>
      <path d="M17.8656 6.88657L18.0457 6.31368L18.3358 6.40284" fill="white"/>
      <path d="M18.215 3.40104L18.0269 3.97104L18.314 4.07104" fill="white"/>
      <path d="M18.215 3.40104L18.4031 3.97104L18.116 4.07104" fill="white"/>
      <path d="M18.7801 3.815L18.1852 3.81189L18.179 4.11778" fill="white"/>
      <path d="M18.7803 3.8153L18.3008 4.17233L18.1185 3.92853" fill="white"/>
      <path d="M17.6496 3.81531L18.1291 4.17233L18.3115 3.92854" fill="white"/>
      <path d="M17.6498 3.815L18.2447 3.81189L18.2509 4.11778" fill="white"/>
      <path d="M18.5638 4.48624L18.385 3.9135L18.0942 4.00354" fill="white"/>
      <path d="M18.564 4.48618L18.0802 4.13735L18.2548 3.88563" fill="white"/>
      <path d="M17.8656 4.48668L18.3495 4.13671L18.1759 3.88566" fill="white"/>
      <path d="M17.8656 4.48657L18.0457 3.91369L18.3358 4.00285" fill="white"/>
      <path d="M18.215 1.00104L18.0269 1.57104L18.314 1.67104" fill="white"/>
      <path d="M18.215 1.00104L18.4031 1.57104L18.116 1.67104" fill="white"/>
      <path d="M18.7801 1.41501L18.1852 1.41189L18.179 1.71778" fill="white"/>
      <path d="M18.7803 1.4153L18.3008 1.77233L18.1185 1.52853" fill="white"/>
      <path d="M17.6497 1.4153L18.1292 1.77233L18.3115 1.52853" fill="white"/>
      <path d="M17.6498 1.415L18.2448 1.41189L18.2509 1.71778" fill="white"/>
      <path d="M18.5638 2.08623L18.385 1.51349L18.0942 1.60354" fill="white"/>
      <path d="M18.564 2.08618L18.0802 1.73735L18.2548 1.48563" fill="white"/>
      <path d="M17.8656 2.08669L18.3495 1.73671L18.1759 1.48566" fill="white"/>
      <path d="M17.8656 2.08657L18.0457 1.51368L18.3358 1.60284" fill="white"/>
      <path d="M8.71099 5.80104L8.52289 6.37104L8.80999 6.47104" fill="white"/>
      <path d="M8.71098 5.80104L8.89908 6.37104L8.61198 6.47104" fill="white"/>
      <path d="M9.27613 6.21501L8.6812 6.21189L8.67504 6.51778" fill="white"/>
      <path d="M9.2763 6.2153L8.7968 6.57233L8.61446 6.32853" fill="white"/>
      <path d="M8.14563 6.2153L8.62514 6.57233L8.80748 6.32853" fill="white"/>
      <path d="M8.14581 6.215L8.74074 6.21189L8.7469 6.51778" fill="white"/>
      <path d="M9.05983 6.88623L8.88103 6.31349L8.59017 6.40353" fill="white"/>
      <path d="M9.05996 6.88618L8.57619 6.53735L8.75081 6.28563" fill="white"/>
      <path d="M8.36156 6.88668L8.84553 6.53671L8.67189 6.28566" fill="white"/>
      <path d="M8.36158 6.88657L8.54167 6.31368L8.8318 6.40284" fill="white"/>
      <path d="M11.087 5.80104L10.8989 6.37104L11.186 6.47104" fill="white"/>
      <path d="M11.087 5.80104L11.2751 6.37104L10.988 6.47104" fill="white"/>
      <path d="M11.6521 6.21501L11.0572 6.21189L11.051 6.51778" fill="white"/>
      <path d="M11.6523 6.2153L11.1728 6.57233L10.9905 6.32853" fill="white"/>
      <path d="M10.5216 6.2153L11.0011 6.57233L11.1835 6.32853" fill="white"/>
      <path d="M10.5218 6.215L11.1167 6.21189L11.1229 6.51778" fill="white"/>
      <path d="M11.4358 6.88623L11.257 6.31349L10.9662 6.40353" fill="white"/>
      <path d="M11.436 6.88618L10.9522 6.53735L11.1268 6.28563" fill="white"/>
      <path d="M10.7376 6.88668L11.2215 6.53671L11.0479 6.28566" fill="white"/>
      <path d="M10.7376 6.88657L10.9177 6.31368L11.2078 6.40284" fill="white"/>
      <path d="M11.087 3.40104L10.8989 3.97104L11.186 4.07104" fill="white"/>
      <path d="M11.087 3.40104L11.2751 3.97104L10.988 4.07104" fill="white"/>
      <path d="M11.6521 3.815L11.0572 3.81189L11.051 4.11778" fill="white"/>
      <path d="M11.6523 3.8153L11.1728 4.17233L10.9905 3.92853" fill="white"/>
      <path d="M10.5216 3.81531L11.0011 4.17233L11.1835 3.92854" fill="white"/>
      <path d="M10.5218 3.815L11.1167 3.81189L11.1229 4.11778" fill="white"/>
      <path d="M11.4358 4.48624L11.257 3.9135L10.9662 4.00354" fill="white"/>
      <path d="M11.436 4.48618L10.9522 4.13735L11.1268 3.88563" fill="white"/>
      <path d="M10.7376 4.48668L11.2215 4.13671L11.0479 3.88566" fill="white"/>
      <path d="M10.7376 4.48657L10.9177 3.91369L11.2078 4.00285" fill="white"/>
    </g>
  </symbol>

  <!-- Russia Flag -->
  <symbol id="flag-ru" viewBox="0 0 33 25">
    <defs>
      <clipPath id="clip-ru">
        <rect width="33" height="25" rx="8" fill="white"/>
      </clipPath>
    </defs>
    <g clip-path="url(#clip-ru)">
      <path d="M0 0H33V8.33333H0V0Z" fill="white"/>
      <path d="M0 8.33333H33V16.6667H0V8.33333Z" fill="#0039A6"/>
      <path d="M0 16.6667H33V25H0V16.6667Z" fill="#D52B1E"/>
    </g>
  </symbol>

  <!-- English Flag (UK) -->
  <symbol id="flag-en" viewBox="0 0 33 25">
    <defs>
      <clipPath id="clip-en">
        <rect width="33" height="25" rx="8" fill="white"/>
      </clipPath>
    </defs>
    <g clip-path="url(#clip-en)">
      <path d="M0 0H33V25H0V0Z" fill="#012169"/>
      <path d="M0 0L33 25M33 0L0 25" stroke="white" stroke-width="4"/>
      <path d="M0 0L33 25M33 0L0 25" stroke="#C8102E" stroke-width="2.5"/>
      <path d="M16.5 0V25M0 12.5H33" stroke="white" stroke-width="6"/>
      <path d="M16.5 0V25M0 12.5H33" stroke="#C8102E" stroke-width="4"/>
    </g>
  </symbol>
</svg>
